<svg xmlns="http://www.w3.org/2000/svg" viewBox="0 0 32 32"><path fill="#ffffff" d="M16.04 3.2A12.74 12.74 0 0 0 5.19 22.6L3.6 28.8l6.34-1.52A12.75 12.75 0 1 0 16.04 3.2Z"/><path fill="#fff" d="M23.48 19.13c-.38-.19-2.24-1.1-2.59-1.23-.35-.13-.6-.19-.85.19-.25.38-.98 1.23-1.2 1.48-.22.25-.44.28-.82.09-.38-.19-1.6-.59-3.05-1.88-1.13-1-1.89-2.25-2.11-2.63-.22-.38-.02-.58.17-.77.17-.17.38-.44.57-.66.19-.22.25-.38.38-.63.13-.25.06-.47-.03-.66-.09-.19-.85-2.05-1.17-2.81-.31-.74-.62-.64-.85-.65h-.73c-.25 0-.66.09-1 .47-.35.38-1.32 1.29-1.32 3.14 0 1.85 1.35 3.64 1.54 3.89.19.25 2.66 4.06 6.44 5.69.9.39 1.6.62 2.15.79.9.29 1.72.25 2.37.15.72-.11 2.24-.92 2.56-1.8.32-.88.32-1.64.22-1.8-.09-.16-.34-.25-.72-.44Z"/></svg>